<svg id="Capa_2" data-name="Capa 2" xmlns="http://www.w3.org/2000/svg" viewBox="0 0 144.38 143.32"><defs><style>.cls-1{fill:#efefed;}</style></defs><path class="cls-1" d="M77.82,143.32l-37.26-6.56,2.17-22.43a51.79,51.79,0,0,1-8.89-7.78L13,112.37,0,76.82l20.51-9.34c.13-1.63.33-3.24.61-4.81a51.23,51.23,0,0,1,1.68-6.78L7.32,40.71l24.31-29L50,24.81A51.8,51.8,0,0,1,61.15,21L66.56,0l37.26,6.56L101.65,29a51.42,51.42,0,0,1,8.89,7.78L131.43,31,144.38,66.5l-20.51,9.34c-.13,1.63-.33,3.24-.61,4.81h0a52.79,52.79,0,0,1-1.67,6.78l15.48,15.18-24.31,29L94.41,118.5a51.12,51.12,0,0,1-11.18,3.83ZM49.24,130.16l22.68,4,4.85-18.8,2.57-.43a43.69,43.69,0,0,0,13.54-4.61l2.19-1.18,16.31,11.65,14.8-17.65-13.86-13.6.91-2.43a43.36,43.36,0,0,0,2.15-7.85h0a43.1,43.1,0,0,0,.64-6.2l.08-2.47,18.23-8.3-7.88-21.65-18.72,5.21-1.65-2A44,44,0,0,0,95.33,34.4l-2.11-1.31,1.93-19.93-22.69-4L67.62,28l-2.57.43A43.6,43.6,0,0,0,51.51,33l-2.19,1.17L33,22.53,18.2,40.18l13.87,13.6-.92,2.43a43.76,43.76,0,0,0-2.79,14l-.08,2.48L10.05,81l7.88,21.64,18.72-5.21,1.66,2a43.65,43.65,0,0,0,10.75,9.44l2.1,1.31Zm23-30.23a28.37,28.37,0,0,1-4.92-.43h0a28.25,28.25,0,1,1,4.92.43Zm-3.53-8.31a20.26,20.26,0,1,0-13.09-8.33,20.29,20.29,0,0,0,13.09,8.33Z"/><path class="cls-1" d="M72.25,99.93a28.74,28.74,0,0,1-5-.43,28.27,28.27,0,0,1,9.8-55.68h0a28.27,28.27,0,0,1-4.84,56.11Zm-.1-48.54a20.28,20.28,0,1,0,3.56.31h0A20.47,20.47,0,0,0,72.15,51.39Z"/></svg>