<svg id="Capa_2" data-name="Capa 2" xmlns="http://www.w3.org/2000/svg" viewBox="0 0 205.22 49.36"><defs><style>.cls-1{fill:#efefed;}</style></defs><path class="cls-1" d="M205.22,49.36C193.44,49.36,188,38.53,183.17,29s-8.21-15.44-14-15.44S159.91,19.38,155.06,29,144.79,49.36,133,49.36,115.78,38.53,111,29s-8.2-15.44-14-15.44S87.72,19.38,82.88,29s-10.26,20.37-22,20.37S43.61,38.53,38.79,29s-8.19-15.44-14-15.44v-9C36.54,4.59,42,15.41,46.79,25S55,40.4,60.84,40.4s9.21-5.84,14-15.44,10.26-20.37,22-20.37S114.16,15.41,119,25s8.2,15.45,14,15.45,9.21-5.84,14.05-15.44S157.33,4.59,169.12,4.59s17.23,10.82,22,20.36,8.2,15.45,14.05,15.45Z"/><rect class="cls-1" width="24.76" height="17.51"/></svg>