<svg id="Capa_2" data-name="Capa 2" xmlns="http://www.w3.org/2000/svg" viewBox="0 0 144.64 126.3"><defs><style>.cls-1{fill:#efefed;}</style></defs><path class="cls-1" d="M89.23,102.1H54.59A10.87,10.87,0,0,1,43.74,91.25V65.69A10.87,10.87,0,0,1,54.59,54.83H89.23a10.87,10.87,0,0,1,10.86,10.86V91.25A10.87,10.87,0,0,1,89.23,102.1ZM54.59,61.47a4.22,4.22,0,0,0-4.21,4.22V91.25a4.22,4.22,0,0,0,4.21,4.21H89.23a4.22,4.22,0,0,0,4.21-4.21V65.69a4.22,4.22,0,0,0-4.21-4.22Z"/><path class="cls-1" d="M91.25,59H84.6V40.91a12.69,12.69,0,0,0-25.38,0V59H52.57V40.91a19.34,19.34,0,0,1,38.68,0Z"/><path class="cls-1" d="M126.74,53.17a55.5,55.5,0,0,0-109.18,0L10,51.8a63.16,63.16,0,0,1,124.26,0Z"/><polygon class="cls-1" points="13.69 57.28 0 38.22 6.23 33.75 15.44 46.58 28.27 37.37 32.75 43.59 13.69 57.28"/><path class="cls-1" d="M72.15,126.3A63.06,63.06,0,0,1,10,74.51l7.54-1.37a55.5,55.5,0,0,0,109.18,0l7.54,1.37A63.08,63.08,0,0,1,72.15,126.3Z"/><polygon class="cls-1" points="138.41 89.71 129.19 76.88 116.36 86.09 111.89 79.86 130.95 66.18 144.64 85.24 138.41 89.71"/><circle class="cls-1" cx="71.91" cy="73.82" r="5.29"/><polygon class="cls-1" points="76.37 86.42 67.45 86.42 70.04 71.81 73.78 71.81 76.37 86.42"/></svg>