<svg id="Capa_2" data-name="Capa 2" xmlns="http://www.w3.org/2000/svg" viewBox="0 0 148.19 137.45"><defs><style>.cls-1{fill:#efefed;}</style></defs><path class="cls-1" d="M49.23,137.45q-1.08,0-2.19-.09c-9-.76-17.35-6.09-24.75-15.84l5.58-4.23c6.15,8.1,12.8,12.51,19.75,13.1,7.24.6,13-3,15.35-4.8V11c-3.46-2.58-14.71-9-28.31,3.44C30.5,18.25,29,22,30.43,25c1.33,2.8,5,4.61,8.39,4.12,3.54-.51,5.89-3.4,6.63-8.12l6.92,1.08c-1.22,7.79-5.91,13-12.55,14C33.37,37,26.76,33.64,24.11,28c-1.33-2.81-3.44-10.27,5.82-18.76,21-19.24,38.78-2.62,39-2.45l1.08,1V128.75l-1.11,1C68.51,130.12,60.57,137.45,49.23,137.45Z"/><path class="cls-1" d="M27.58,123.89a24.69,24.69,0,0,1-12.06-3.64c-6.33-3.57-10.37-8.47-12-14.54-2.16-8.07.64-16,2.36-19.71C2,80.76-6.22,65.89,8.19,47.05l5.56,4.25C-.38,69.78,12,82.52,12.49,83.05L14.41,85,13,87.32c0,.08-4.92,8.58-2.75,16.62,1.13,4.17,4.05,7.61,8.67,10.22,4.82,2.72,8.91,3.4,12.16,2,5.47-2.32,7.48-9.81,7.5-9.89L45.4,108c-.11.44-2.84,10.87-11.5,14.57A16,16,0,0,1,27.58,123.89Z"/><path class="cls-1" d="M22.92,69.71C22.26,69.19,6.74,56.83,7.84,42.2c.6-7.93,5.82-14.73,15.52-20.22l3.44,6.1c-7.53,4.26-11.56,9.18-12,14.63-.83,10.9,12.29,21.4,12.43,21.5Z"/><path class="cls-1" d="M56.16,95.8a13.63,13.63,0,0,1-3.79-.55c-9.44-2.72-13.52-15-13.69-15.53l6.66-2.16c.85,2.58,4.12,9.58,9,11,2.83.81,6.16-.36,9.91-3.48l4.48,5.37C64.42,94,60.22,95.8,56.16,95.8Z"/><path class="cls-1" d="M55.2,72l-6.32-3c0-.06,2.73-6,.09-11.11-2.14-4.14-7.22-7-15.12-8.44l1.27-6.89c10.19,1.88,17,6,20.11,12.21C59.43,63,55.37,71.65,55.2,72Z"/><path class="cls-1" d="M31.25,104.67l-5.44-4.4c2.6-3.22,5.46-7.84,4.26-11.63S23.69,82.55,21.8,82l1.87-6.74c.42.11,10.4,2.94,13,11.2C38.47,91.91,36.63,98,31.25,104.67Z"/><path class="cls-1" d="M99,137.45c-11.33,0-19.27-7.33-19.63-7.66l-1.1-1V7.76l1.2-1c.4-.35,10-8.55,22.29-6.12,9.6,1.89,17.86,9.59,24.53,22.87L120,26.6C114.35,15.38,107.77,9,100.42,7.47c-6.79-1.37-12.74,2-15.2,3.63V125.58c2.35,1.75,8.22,5.43,15.42,4.8,6.93-.61,13.55-5,19.68-13.09l5.58,4.23c-7.41,9.75-15.73,15.08-24.75,15.84C100.41,137.42,99.67,137.45,99,137.45Z"/><path class="cls-1" d="M120.87,124.58l-1.15-6.9a41.35,41.35,0,0,0,9.5-3.52c4.63-2.61,7.54-6,8.67-10.22,2.18-8-2.7-16.54-2.75-16.63L133.76,85l2-1.92c.52-.52,12.86-13.26-1.27-31.74L140,47.05c14.41,18.84,6.22,33.71,2.31,39,1.71,3.75,4.51,11.64,2.35,19.71-1.62,6.07-5.66,11-12,14.54A47.34,47.34,0,0,1,120.87,124.58Z"/><path class="cls-1" d="M125.34,69.66l-4.47-5.4c.13-.1,13.28-11.2,12.12-22.56-.61-5.89-5.13-11.12-13.43-15.55L122.85,20c10.5,5.6,16.26,12.68,17.1,21C141.48,56.1,126,69.11,125.34,69.66Z"/><path class="cls-1" d="M109.68,96.21h-7v-7a6.53,6.53,0,0,0-6.52-6.52H81.72v-7H96.16a13.54,13.54,0,0,1,13.52,13.52Z"/><path class="cls-1" d="M106.18,115.25a12.2,12.2,0,1,1,12.19-12.2A12.21,12.21,0,0,1,106.18,115.25Zm0-17.4a5.2,5.2,0,1,0,5.19,5.2A5.2,5.2,0,0,0,106.18,97.85Z"/><path class="cls-1" d="M96.16,65.75H81.72v-7H96.16a6.53,6.53,0,0,0,6.52-6.51v-7h7v7A13.53,13.53,0,0,1,96.16,65.75Z"/><path class="cls-1" d="M106.18,50.63a12.2,12.2,0,1,1,12.19-12.2A12.21,12.21,0,0,1,106.18,50.63Zm0-17.39a5.2,5.2,0,1,0,5.19,5.19A5.2,5.2,0,0,0,106.18,33.24Z"/></svg>