<svg id="Capa_2" data-name="Capa 2" xmlns="http://www.w3.org/2000/svg" viewBox="0 0 145.14 108.91"><defs><style>.cls-1{fill:#efefed;}</style></defs><path class="cls-1" d="M120.61,108.91,113.75,102a63,63,0,0,0,0-95.14L120.61,0a72.71,72.71,0,0,1,0,108.91Z"/><path class="cls-1" d="M98.86,87.05,91.73,79.9a31.95,31.95,0,0,0,0-50.89l7.12-7.15a42,42,0,0,1,0,65.19Z"/><path class="cls-1" d="M24.53,0l6.86,6.89a63,63,0,0,0,0,95.14l-6.85,6.88A72.71,72.71,0,0,1,24.53,0Z"/><path class="cls-1" d="M46.28,21.86,53.41,29a31.95,31.95,0,0,0,0,50.89l-7.12,7.15a42,42,0,0,1,0-65.19Z"/><path class="cls-1" d="M61.89,54.54A10.51,10.51,0,1,1,72.44,65,10.57,10.57,0,0,1,61.89,54.54Z"/></svg>