<svg id="Capa_2" data-name="Capa 2" xmlns="http://www.w3.org/2000/svg" viewBox="0 0 185.32 130.02"><defs><style>.cls-1{fill:#efefed;}</style></defs><path class="cls-1" d="M0,130c0-6.89,0-16.79,0-23.68,0-4.41,0-11.82,0-16.23L8.83,90c0,1.11,0,5.21,0,6.31v9.56c17.64,0,34.82.07,52,0,5.43,0,10.84-3.9,11.75-9.17,1-5.59.74-11.39,1-17.23-17.41,0-34.13,0-50.85,0C9.62,79.39,0,69.78,0,56.6Q0,40.06,0,23.52C0,9.36,9.34,0,23.44,0H153.29c6.77,0,7.87,1.43,6.19,8a3,3,0,0,0,.1.78c6.93,0,13.89,0,20.85,0,4,0,5.73,2.61,4.51,6.45Q176.8,41,168.66,66.69c-.85,2.7-2.49,4-5.47,3.94-6.43-.14-12.86,0-19.29,0-4.43,0-4.43,0-5.7,4.19s-2,4.64-6.22,4.64H82.2V91.75c0,13.37-9.56,22.94-22.9,23H8.84c0,4.34,0,11.28,0,15.22ZM146.64,8.82H24C14,8.82,8.84,14,8.84,23.88c0,10.84,0,21.68,0,32.52C8.86,65,14.36,70.57,23,70.58q52.36,0,104.73,0c1.54,0,2.64,0,3.25-2,6.12-19.59,12.38-39.15,18.59-58.72a6.6,6.6,0,0,0,.1-1.1Zm28.24,8.83c-6,0-11.64,0-17.31.05a2,2,0,0,0-1.5,1.12C151.48,33,147,47.24,142.37,61.65h18.52Z"/></svg>