<svg xmlns="http://www.w3.org/2000/svg" viewBox="0 0 135.98 135.98"><defs><style>.cls-1{fill:#c52178;}.cls-2{fill:#efeeec;}</style></defs><g id="Capa_2" data-name="Capa 2"><path class="cls-1" d="M136,0H0V136H91A44.94,44.94,0,0,0,136,91V0Z"/></g><g id="Capa_1" data-name="Capa 1"><path class="cls-2" d="M119.16,80.3c-5.88,0-8.6-5.4-11-10.16s-4.09-7.7-7-7.7-4.59,2.91-7,7.7S89,80.3,83.15,80.3s-8.59-5.4-11-10.16-4.09-7.7-7-7.7-4.59,2.91-7,7.7S53,80.3,47.16,80.3s-8.59-5.4-11-10.16-4.08-7.7-7-7.7V58c5.88,0,8.59,5.39,11,10.15s4.09,7.7,7,7.7,4.59-2.91,7-7.7S59.29,58,65.16,58s8.59,5.39,11,10.15,4.09,7.7,7,7.7,4.59-2.91,7-7.7S95.28,58,101.15,58s8.6,5.39,11,10.15,4.09,7.7,7,7.7Z"/><rect class="cls-2" x="16.83" y="55.69" width="12.35" height="8.73"/></g></svg>