<svg xmlns="http://www.w3.org/2000/svg" viewBox="0 0 135.98 135.98"><defs><style>.cls-1{fill:#ffc21f;}.cls-2{fill:#efeeec;}</style></defs><g id="Capa_2" data-name="Capa 2"><path class="cls-1" d="M136,0H0V136H91A44.94,44.94,0,0,0,136,91V0Z"/></g><g id="Capa_1" data-name="Capa 1"><path class="cls-2" d="M71.39,111.2l-22.47-4,1.31-13.53A30.67,30.67,0,0,1,44.87,89l-12.6,3.51L24.46,71.1l12.37-5.63c.08-1,.2-1.95.37-2.9a30.76,30.76,0,0,1,1-4.08l-9.34-9.16L43.53,31.85l11.07,7.9a30.85,30.85,0,0,1,6.74-2.31L64.6,24.78l22.46,4-1.3,13.52A31.91,31.91,0,0,1,91.12,47l12.59-3.5,7.81,21.43L99.16,70.51c-.08,1-.21,1.95-.37,2.9h0a31.29,31.29,0,0,1-1,4.09l9.33,9.16L92.45,104.14l-11.06-7.9a30.66,30.66,0,0,1-6.74,2.3Zm-17.24-7.93,13.68,2.41,2.92-11.34,1.55-.26a26.12,26.12,0,0,0,8.16-2.78l1.33-.7,9.83,7L100.55,87l-8.36-8.2.55-1.47A26.8,26.8,0,0,0,94,72.58h0a26.92,26.92,0,0,0,.38-3.74l0-1.49,11-5-4.75-13.05L89.42,52.43l-1-1.21a26.07,26.07,0,0,0-6.48-5.69l-1.27-.79,1.16-12L68.15,30.31,65.23,41.64l-1.55.26a26.38,26.38,0,0,0-8.16,2.78l-1.32.71-9.84-7L35.44,49l8.36,8.2-.55,1.47A26,26,0,0,0,42,63.41a28.18,28.18,0,0,0-.39,3.74l-.05,1.49-11,5,4.76,13,11.28-3.14,1,1.22A26.27,26.27,0,0,0,54,90.46l1.27.79ZM68,85a17.5,17.5,0,0,1-3-.26A17,17,0,1,1,68,85Zm0-29.27a12.25,12.25,0,1,0,2.12.19A11.77,11.77,0,0,0,68,55.77Z"/><path class="cls-2" d="M68,85a17.5,17.5,0,0,1-3-.26A17,17,0,1,1,71,51.21h0A17,17,0,0,1,68,85Zm0-29.27a12.25,12.25,0,1,0,2.14.19A11.91,11.91,0,0,0,68,55.77Z"/></g></svg>