<svg xmlns="http://www.w3.org/2000/svg" viewBox="0 0 135.98 135.98"><defs><style>.cls-1{fill:#ec4228;}.cls-2{fill:#efeeec;}</style></defs><g id="Capa_2" data-name="Capa 2"><path class="cls-1" d="M136,0H0V136H91A44.94,44.94,0,0,0,136,91V0Z"/></g><g id="Capa_1" data-name="Capa 1"><path class="cls-2" d="M54,106.86c-.41,0-.83,0-1.25,0-5.15-.43-9.89-3.46-14.09-9l3.57-2.72c3.41,4.49,7.07,6.93,10.89,7.25a12.63,12.63,0,0,0,8.31-2.56V35.71c-2-1.52-8-4.77-15.42,2-2.23,2.05-3,4-2.31,5.62a4.37,4.37,0,0,0,4.42,2.16c1.85-.27,3.09-1.81,3.48-4.33l4.44.7c-.7,4.49-3.42,7.51-7.28,8.07a8.82,8.82,0,0,1-9.12-4.68c-.77-1.63-2-6,3.34-10.85,9.58-8.79,18.75-4.74,22.25-1.38l.7.66v68.12l-.71.67A17.72,17.72,0,0,1,54,106.86Z"/><path class="cls-2" d="M41.88,99.25A14.11,14.11,0,0,1,35,97.17a13.49,13.49,0,0,1-6.87-8.34c-1.21-4.5.29-8.9,1.27-11.1-2.27-3.12-6.68-11.51,1.4-22.08l3.57,2.73c-7.78,10.17-1,17.17-.73,17.46l1.22,1.23L34,78.58s-2.71,4.72-1.52,9.12a9.18,9.18,0,0,0,4.74,5.56c2.62,1.48,4.83,1.86,6.57,1.13,2.94-1.25,4-5.33,4.06-5.37l4.35,1.12c-.07.25-1.64,6.23-6.63,8.37A9.23,9.23,0,0,1,41.88,99.25Z"/><path class="cls-2" d="M39.09,68.77c-.38-.29-9.21-7.33-8.57-15.69.34-4.55,3.32-8.44,8.85-11.57l2.21,3.91c-4.14,2.34-6.36,5-6.58,8-.46,6,6.79,11.77,6.86,11.83Z"/><path class="cls-2" d="M57.93,83.48a7.88,7.88,0,0,1-2.21-.32c-5.35-1.54-7.63-8.15-7.88-8.9l4.27-1.39c.47,1.41,2.25,5.23,4.86,6,1.49.43,3.27-.22,5.3-1.91l2.88,3.46C62.69,82.45,60.27,83.48,57.93,83.48Z"/><path class="cls-2" d="M57.64,70l-4-1.95,2,1-2-1s1.48-3.23.05-6c-1.15-2.24-3.94-3.79-8.28-4.59L46.16,53c5.81,1.07,9.68,3.43,11.49,7C60.07,64.8,57.74,69.75,57.64,70Z"/><path class="cls-2" d="M44.16,88.36l-3.49-2.83c1.42-1.76,3-4.27,2.33-6.28-.77-2.41-4.4-3.51-4.43-3.52l1.19-4.33c.24.07,6,1.7,7.52,6.48C48.29,81,47.24,84.55,44.16,88.36Z"/><path class="cls-2" d="M82,106.86a17.71,17.71,0,0,1-11.21-4.37l-.71-.67V33.64L70.8,33c.23-.2,5.71-4.89,12.75-3.5,5.48,1.08,10.18,5.45,14,13l-4,2c-3.12-6.21-6.74-9.77-10.78-10.59a11.31,11.31,0,0,0-8.2,1.91v64a12.76,12.76,0,0,0,8.36,2.55c3.8-.34,7.45-2.77,10.84-7.24l3.58,2.72c-4.21,5.54-9,8.57-14.09,9C82.78,106.85,82.36,106.86,82,106.86Z"/><path class="cls-2" d="M94.3,99.63l-.74-4.43a22.79,22.79,0,0,0,5.25-1.94,9.11,9.11,0,0,0,4.74-5.59c1.17-4.36-1.5-9-1.52-9.09l-.9-1.51,1.26-1.24c.28-.28,7-7.28-.74-17.45l3.57-2.73c8.08,10.57,3.67,19,1.39,22.08,1,2.2,2.48,6.6,1.28,11.1A13.55,13.55,0,0,1,101,97.17,26.18,26.18,0,0,1,94.3,99.63Z"/><path class="cls-2" d="M96.94,68.74l-2.86-3.46c.07-.06,7.34-6.2,6.7-12.43-.33-3.21-2.82-6.07-7.4-8.51l2.12-4c6,3.19,9.26,7.24,9.75,12C106.12,61,97.32,68.42,96.94,68.74Z"/><path class="cls-2" d="M88.25,83.43H83.76V79.52a3.39,3.39,0,0,0-3.38-3.38H72.27V71.65h8.11a7.88,7.88,0,0,1,7.87,7.87Z"/><path class="cls-2" d="M86,94.4a7.13,7.13,0,1,1,7.13-7.13A7.13,7.13,0,0,1,86,94.4Zm0-9.77a2.64,2.64,0,1,0,2.64,2.64A2.64,2.64,0,0,0,86,84.63Z"/><path class="cls-2" d="M80.38,66.61H72.27V62.12h8.11a3.39,3.39,0,0,0,3.38-3.38V54.83h4.49v3.91A7.88,7.88,0,0,1,80.38,66.61Z"/><path class="cls-2" d="M86,58.12A7.13,7.13,0,1,1,93.13,51,7.13,7.13,0,0,1,86,58.12Zm0-9.77A2.64,2.64,0,1,0,88.64,51,2.64,2.64,0,0,0,86,48.35Z"/></g></svg>