<svg xmlns="http://www.w3.org/2000/svg" viewBox="0 0 135.98 135.98"><defs><style>.cls-1{fill:#161415;}.cls-2{fill:#efeeec;}</style></defs><g id="Capa_2" data-name="Capa 2"><path class="cls-1" d="M136,0H0V136H91A44.94,44.94,0,0,0,136,91V0Z"/></g><g id="Capa_1" data-name="Capa 1"><path class="cls-2" d="M79.37,94.2H56.07a7.31,7.31,0,0,1-7.31-7.3V69.7a7.32,7.32,0,0,1,7.31-7.31h23.3a7.32,7.32,0,0,1,7.31,7.31V86.9A7.31,7.31,0,0,1,79.37,94.2ZM56.07,66.86a2.84,2.84,0,0,0-2.84,2.84V86.9a2.84,2.84,0,0,0,2.84,2.83h23.3a2.84,2.84,0,0,0,2.84-2.83V69.7a2.84,2.84,0,0,0-2.84-2.84Z"/><path class="cls-2" d="M80.73,65.21H76.26V53a8.54,8.54,0,0,0-17.08,0V65.21H54.71V53a13,13,0,0,1,26,0Z"/><path class="cls-2" d="M104.61,61.27a37.35,37.35,0,0,0-73.47,0l-5.07-.92a42.51,42.51,0,0,1,83.62,0Z"/><polygon class="cls-2" points="28.54 64.04 19.33 51.21 23.52 48.2 29.72 56.84 38.35 50.64 41.36 54.83 28.54 64.04"/><path class="cls-2" d="M67.88,110.49A42.43,42.43,0,0,1,26.07,75.63l5.07-.92a37.35,37.35,0,0,0,73.47,0l5.08.92A42.45,42.45,0,0,1,67.88,110.49Z"/><polygon class="cls-2" points="112.47 85.86 106.27 77.23 97.63 83.43 94.62 79.24 107.45 70.03 116.66 82.86 112.47 85.86"/><circle class="cls-2" cx="67.72" cy="75.17" r="3.56"/><polygon class="cls-2" points="70.72 83.65 64.72 83.65 66.46 73.82 68.98 73.82 70.72 83.65"/></g></svg>