<svg xmlns="http://www.w3.org/2000/svg" viewBox="0 0 135.98 135.98"><defs><style>.cls-1{fill:#18a322;}.cls-2{fill:#efeeec;}</style></defs><g id="Capa_2" data-name="Capa 2"><path class="cls-1" d="M136,0H0V136H91A44.94,44.94,0,0,0,136,91V0Z"/></g><g id="Capa_1" data-name="Capa 1"><path class="cls-2" d="M98.88,103l-4.41-4.43a40.54,40.54,0,0,0,0-61.18L98.88,33a46.74,46.74,0,0,1,0,70Z"/><path class="cls-2" d="M84.9,89l-4.59-4.6a20.54,20.54,0,0,0,0-32.72L84.89,47A27,27,0,0,1,84.9,89Z"/><path class="cls-2" d="M37.1,33l4.41,4.43a40.52,40.52,0,0,0,0,61.17L37.1,103a46.76,46.76,0,0,1,0-70Z"/><path class="cls-2" d="M51.09,47l4.58,4.6a20.54,20.54,0,0,0,0,32.72L51.09,89a27,27,0,0,1,0-41.92Z"/><path class="cls-2" d="M61.13,68.05a6.76,6.76,0,1,1,6.78,6.73A6.79,6.79,0,0,1,61.13,68.05Z"/></g></svg>