<svg xmlns="http://www.w3.org/2000/svg" viewBox="0 0 135.98 135.98"><defs><style>.cls-1{fill:#2d9dc5;}.cls-2{fill:#efeeec;}</style></defs><g id="Capa_2" data-name="Capa 2"><path class="cls-1" d="M136,0H0V136H91A44.94,44.94,0,0,0,136,91V0Z"/></g><g id="Capa_1" data-name="Capa 1"><path class="cls-2" d="M22.66,103.8c0-3.37,0-8.21,0-11.58,0-2.16,0-5.78,0-7.94l4.3-.06c0,.54,0,2.55,0,3.09V92c8.63,0,17,0,25.45,0a5.88,5.88,0,0,0,5.75-4.49A70.55,70.55,0,0,0,58.68,79H33.8A10.81,10.81,0,0,1,22.66,67.88c0-5.4,0-10.79,0-16.19,0-6.93,4.56-11.51,11.46-11.51H97.66c3.32,0,3.85.7,3,3.94a1.44,1.44,0,0,0,0,.38h10.2c1.94,0,2.81,1.28,2.21,3.16q-4,12.57-8,25.15a2.44,2.44,0,0,1-2.67,1.93c-3.15-.06-6.3,0-9.45,0-2.16,0-2.16,0-2.78,2s-1,2.27-3,2.27H62.87v6a10.82,10.82,0,0,1-11.2,11.23H27c0,2.12,0,5.52,0,7.45ZM94.41,44.5h-60C29.52,44.5,27,47,27,51.87q0,8,0,15.91c0,4.22,2.7,6.94,6.9,6.94H85.13c.75,0,1.29,0,1.59-1,3-9.59,6.06-19.16,9.1-28.73a4.13,4.13,0,0,0,.05-.54Zm13.82,4.32c-2.92,0-5.7,0-8.48,0a1,1,0,0,0-.73.55c-2.24,7-4.46,13.91-6.71,21h9.07Z"/></g></svg>