<svg xmlns="http://www.w3.org/2000/svg" viewBox="0 0 378.09 378.09"><defs><style>.cls-1{fill:#2d9dc5;}.cls-2{fill:#ffc21f;}.cls-3{fill:#c52178;}.cls-4{fill:#ec4228;}.cls-5{fill:#18a322;}.cls-6{fill:#161415;}</style></defs><g id="Capa_1" data-name="Capa 1"><path class="cls-1" d="M134.94,236.71c0-3.37,0-8.21,0-11.59,0-2.15,0-5.78,0-7.94l4.31-.06c0,.54,0,2.55,0,3.09v4.68c8.63,0,17,0,25.45,0a5.88,5.88,0,0,0,5.75-4.48,73,73,0,0,0,.51-8.44H146.07a10.81,10.81,0,0,1-11.14-11.16V184.6c0-6.93,4.57-11.51,11.47-11.51h63.54c3.31,0,3.85.7,3,3.93,0,.08,0,.17.06.38,3.38,0,6.79,0,10.2,0,1.94,0,2.8,1.28,2.21,3.15q-4,12.58-8,25.16a2.45,2.45,0,0,1-2.68,1.93c-3.14-.07-6.29,0-9.44,0-2.17,0-2.17,0-2.79,2.05s-1,2.26-3,2.26H175.15v6a10.81,10.81,0,0,1-11.21,11.23H139.25c0,2.13,0,5.52,0,7.45Zm71.74-59.31h-60c-4.88,0-7.42,2.53-7.42,7.37,0,5.31,0,10.61,0,15.91,0,4.23,2.7,6.94,6.9,6.94H197.4c.76,0,1.29,0,1.59-.95,3-9.59,6.06-19.16,9.1-28.74a2.7,2.7,0,0,0,0-.54Zm13.82,4.32c-2.92,0-5.69,0-8.47,0a1,1,0,0,0-.73.54c-2.25,7-4.46,13.91-6.71,21h9.07Z"/><path class="cls-2" d="M64.53,167,42.06,163l1.31-13.52A31.53,31.53,0,0,1,38,144.8l-12.6,3.51L17.6,126.88,30,121.24c.08-1,.2-1.95.37-2.9a31.15,31.15,0,0,1,1-4.08L22,105.1,36.67,87.62l11.07,7.9a30.85,30.85,0,0,1,6.74-2.31l3.26-12.66,22.46,4L78.9,98a31.53,31.53,0,0,1,5.36,4.7l12.6-3.51,7.8,21.43L92.3,126.28c-.08,1-.2,2-.37,2.9h0a31.15,31.15,0,0,1-1,4.08l9.33,9.16L85.59,159.91,74.53,152a31,31,0,0,1-6.74,2.31ZM47.29,159,61,161.45l2.92-11.34,1.55-.25a26.52,26.52,0,0,0,8.17-2.78l1.32-.71,9.83,7,8.93-10.64-8.36-8.2.55-1.47a26.8,26.8,0,0,0,1.3-4.73h0a26.92,26.92,0,0,0,.38-3.74l0-1.49,11-5-4.76-13L82.56,108.2l-1-1.21a26.5,26.5,0,0,0-6.49-5.69l-1.27-.79,1.16-12L61.3,86.08,58.38,97.42l-1.56.25a26.47,26.47,0,0,0-8.16,2.78l-1.32.71-9.84-7-8.92,10.64,8.36,8.2-.55,1.47a26,26,0,0,0-1.68,8.47l-.06,1.49-11,5,4.76,13.05,11.28-3.15,1,1.22a26.63,26.63,0,0,0,6.48,5.69l1.28.79Zm13.85-18.23a16.53,16.53,0,0,1-3-.26,17,17,0,1,1,3,.26Zm0-29.27a12.25,12.25,0,1,0,2.12.19A11.77,11.77,0,0,0,61.13,111.54Z"/><path class="cls-2" d="M61.14,140.81a16.53,16.53,0,0,1-3-.26A17,17,0,1,1,64.09,107h0a17,17,0,0,1-3,33.83Zm0-29.27a12.25,12.25,0,1,0,2.14.19A11.91,11.91,0,0,0,61.11,111.54Z"/><path class="cls-3" d="M106.93,307.72c-5.88,0-8.6-5.4-11-10.16s-4.09-7.7-7-7.7-4.6,2.91-7,7.7-5.12,10.16-11,10.16-8.59-5.4-11-10.16-4.09-7.7-7-7.7-4.59,2.91-7,7.7-5.12,10.16-11,10.16-8.6-5.4-11-10.16-4.09-7.7-7-7.7V285.4c5.87,0,8.59,5.39,11,10.15s4.09,7.7,7,7.7,4.59-2.91,7-7.7,5.12-10.15,11-10.15,8.59,5.39,11,10.15,4.09,7.7,7,7.7,4.59-2.91,7-7.7,5.12-10.15,11-10.15,8.59,5.39,11,10.15,4.09,7.7,7,7.7Z"/><rect class="cls-3" x="4.6" y="283.11" width="12.35" height="8.73"/><path class="cls-4" d="M218,81.07q-.62,0-1.26-.06c-5.14-.43-9.89-3.46-14.09-9l3.58-2.72c3.4,4.49,7.07,6.93,10.89,7.25A12.71,12.71,0,0,0,225.44,74V9.92c-2-1.53-8-4.78-15.43,2-2.23,2.05-3,4-2.3,5.62a4.33,4.33,0,0,0,4.41,2.16c1.86-.27,3.09-1.81,3.49-4.33l4.44.7c-.71,4.5-3.43,7.51-7.28,8.07a8.8,8.8,0,0,1-9.12-4.67c-.78-1.64-2-6,3.33-10.86,9.58-8.79,18.75-4.74,22.26-1.38l.69.67V76l-.71.67A17.69,17.69,0,0,1,218,81.07Z"/><path class="cls-4" d="M205.85,73.45a14.17,14.17,0,0,1-6.91-2.08A13.56,13.56,0,0,1,192.07,63c-1.2-4.51.29-8.91,1.27-11.11-2.27-3.12-6.68-11.51,1.4-22.07l3.57,2.72c-7.78,10.18-1,17.17-.73,17.46l1.23,1.24-.88,1.5s-2.7,4.72-1.51,9.12a9.08,9.08,0,0,0,4.73,5.56c2.63,1.48,4.84,1.86,6.58,1.13,2.94-1.25,4-5.32,4.05-5.37l4.35,1.12c-.06.25-1.63,6.24-6.62,8.37A9.31,9.31,0,0,1,205.85,73.45Z"/><path class="cls-4" d="M203.06,43c-.37-.29-9.2-7.33-8.57-15.69.34-4.55,3.32-8.44,8.85-11.57l2.21,3.91c-4.14,2.34-6.35,5-6.58,8-.46,6,6.79,11.78,6.87,11.83Z"/><path class="cls-4" d="M221.9,57.68a8,8,0,0,1-2.21-.32c-5.35-1.54-7.63-8.15-7.87-8.9l4.27-1.39c.46,1.41,2.24,5.23,4.85,6,1.5.43,3.28-.21,5.31-1.9l2.87,3.45C226.66,56.65,224.24,57.68,221.9,57.68Z"/><path class="cls-4" d="M221.61,44.16l-4.05-1.95,2,1-2-1s1.47-3.23.05-6c-1.16-2.25-4-3.79-8.29-4.59l.82-4.42c5.81,1.07,9.67,3.43,11.49,7C224.05,39,221.71,44,221.61,44.16Z"/><path class="cls-4" d="M208.13,62.56l-3.49-2.83c1.42-1.75,3-4.27,2.34-6.28-.78-2.41-4.4-3.51-4.44-3.52l1.19-4.33c.25.07,6,1.7,7.52,6.48C212.26,55.23,211.21,58.75,208.13,62.56Z"/><path class="cls-4" d="M245.93,81.07a17.7,17.7,0,0,1-11.22-4.38L234,76V7.84l.77-.67c.23-.2,5.72-4.89,12.76-3.5,5.48,1.08,10.18,5.45,14,13l-4,2c-3.12-6.21-6.75-9.77-10.78-10.59A11.3,11.3,0,0,0,238.49,10V74a12.79,12.79,0,0,0,8.36,2.55c3.81-.33,7.46-2.77,10.85-7.24L261.27,72c-4.2,5.54-8.94,8.57-14.09,9C246.76,81.05,246.34,81.07,245.93,81.07Z"/><path class="cls-4" d="M258.27,73.84l-.73-4.44a22.44,22.44,0,0,0,5.24-1.94,9.11,9.11,0,0,0,4.74-5.59c1.17-4.36-1.49-9-1.52-9.09l-.89-1.51L266.36,50c.28-.29,7-7.28-.74-17.46l3.57-2.72c8.08,10.56,3.67,19,1.4,22.07,1,2.2,2.48,6.6,1.27,11.11A13.53,13.53,0,0,1,265,71.37,26.35,26.35,0,0,1,258.27,73.84Z"/><path class="cls-4" d="M260.92,42.94l-2.87-3.46c.07-.06,7.34-6.2,6.7-12.43-.33-3.2-2.82-6.07-7.39-8.51l2.11-4c6,3.19,9.27,7.24,9.75,12C270.09,35.23,261.29,42.63,260.92,42.94Z"/><path class="cls-4" d="M252.22,57.63h-4.49V53.72a3.38,3.38,0,0,0-3.37-3.38h-8.11V45.85h8.11a7.88,7.88,0,0,1,7.86,7.87Z"/><path class="cls-4" d="M250,68.6a7.13,7.13,0,1,1,7.13-7.13A7.14,7.14,0,0,1,250,68.6Zm0-9.77a2.64,2.64,0,1,0,2.64,2.64A2.64,2.64,0,0,0,250,58.83Z"/><path class="cls-4" d="M244.36,40.81h-8.11V36.32h8.11a3.38,3.38,0,0,0,3.37-3.38V29h4.49v3.91A7.88,7.88,0,0,1,244.36,40.81Z"/><path class="cls-4" d="M250,32.32a7.13,7.13,0,1,1,7.13-7.13A7.14,7.14,0,0,1,250,32.32Zm0-9.77a2.64,2.64,0,1,0,2.64,2.64A2.64,2.64,0,0,0,250,22.55Z"/><path class="cls-5" d="M281.88,374.05l-4.41-4.43a40.53,40.53,0,0,0,0-61.18l4.41-4.42a46.76,46.76,0,0,1,0,70Z"/><path class="cls-5" d="M267.89,360l-4.58-4.59a20.55,20.55,0,0,0,0-32.73l4.58-4.59a27,27,0,0,1,0,41.91Z"/><path class="cls-5" d="M220.1,304l4.41,4.43a40.54,40.54,0,0,0,0,61.18l-4.4,4.42a46.76,46.76,0,0,1,0-70Z"/><path class="cls-5" d="M234.08,318.08l4.59,4.59a20.55,20.55,0,0,0,0,32.73L234.09,360a27,27,0,0,1,0-41.91Z"/><path class="cls-5" d="M244.12,339.09a6.76,6.76,0,1,1,6.78,6.73A6.8,6.8,0,0,1,244.12,339.09Z"/><path class="cls-6" d="M337.72,223.52H314.41a7.31,7.31,0,0,1-7.3-7.31V199a7.31,7.31,0,0,1,7.3-7.31h23.31A7.32,7.32,0,0,1,345,199v17.2A7.32,7.32,0,0,1,337.72,223.52Zm-23.31-27.34a2.83,2.83,0,0,0-2.83,2.83v17.2a2.83,2.83,0,0,0,2.83,2.83h23.31a2.84,2.84,0,0,0,2.84-2.83V199a2.84,2.84,0,0,0-2.84-2.83Z"/><path class="cls-6" d="M339.08,194.52h-4.47V182.34a8.54,8.54,0,0,0-17.08,0v12.18h-4.48V182.34a13,13,0,1,1,26,0Z"/><path class="cls-6" d="M363,190.59a37.35,37.35,0,0,0-73.47,0l-5.08-.92a42.5,42.5,0,0,1,83.62,0Z"/><polygon class="cls-6" points="286.88 193.35 277.68 180.53 281.87 177.52 288.07 186.16 296.7 179.95 299.71 184.14 286.88 193.35"/><path class="cls-6" d="M326.22,239.8A42.45,42.45,0,0,1,284.41,205l5.08-.92A37.35,37.35,0,0,0,363,204L368,205A42.44,42.44,0,0,1,326.22,239.8Z"/><polygon class="cls-6" points="370.81 215.18 364.61 206.54 355.98 212.74 352.97 208.55 365.8 199.34 375 212.17 370.81 215.18"/><circle class="cls-6" cx="326.07" cy="204.49" r="3.56"/><polygon class="cls-6" points="329.07 212.97 323.06 212.97 324.81 203.13 327.33 203.13 329.07 212.97"/></g></svg>