<svg id="Capa_1" data-name="Capa 1" xmlns="http://www.w3.org/2000/svg" viewBox="0 0 48.94 49.06"><defs><style>.cls-1,.cls-2{fill:#efefed;}.cls-2{fill-rule:evenodd;}</style></defs><path class="cls-1" d="M0,49.06,3.52,35.94a24.25,24.25,0,1,1,9.67,9.59Zm13.85-8.45.83.5a19.71,19.71,0,1,0-6.75-6.69l.51.84-2,7.33Z"/><path class="cls-2" d="M33.72,27.6c-1-.59-2.29-1.26-3.47-.78-.9.37-1.47,1.78-2.06,2.5a.85.85,0,0,1-1.11.24,15.65,15.65,0,0,1-7.85-6.72,1,1,0,0,1,.12-1.31,5.23,5.23,0,0,0,1.43-2.31,5.09,5.09,0,0,0-.64-2.74c-.47-1-1-2.47-2-3.05a2.77,2.77,0,0,0-3,.45A6.11,6.11,0,0,0,13,18.72a7.12,7.12,0,0,0,.19,1.53,12.85,12.85,0,0,0,1.48,3.4A27.48,27.48,0,0,0,16.19,26a23.89,23.89,0,0,0,6.67,6.2,20.83,20.83,0,0,0,4.16,2c1.63.54,3.08,1.1,4.84.77a5.84,5.84,0,0,0,4.39-3.27A2.8,2.8,0,0,0,36.46,30C36.21,28.84,34.65,28.16,33.72,27.6Z"/></svg>