<svg id="Capa_1" data-name="Capa 1" xmlns="http://www.w3.org/2000/svg" viewBox="0 0 49.06 49.06"><defs><style>.cls-1{fill:#efefed;}</style></defs><path class="cls-1" d="M37.52,8.76a2.88,2.88,0,1,0,2.88,2.88A2.88,2.88,0,0,0,37.52,8.76Z"/><path class="cls-1" d="M24.73,12.45A12.08,12.08,0,1,0,36.82,24.53,12.09,12.09,0,0,0,24.73,12.45Zm0,19.82a7.74,7.74,0,1,1,7.74-7.74A7.75,7.75,0,0,1,24.73,32.27Z"/><path class="cls-1" d="M34.32,49.06H14.74A14.75,14.75,0,0,1,0,34.33V14.74A14.75,14.75,0,0,1,14.74,0H34.32A14.75,14.75,0,0,1,49.06,14.74V34.33A14.75,14.75,0,0,1,34.32,49.06ZM14.74,4.62A10.13,10.13,0,0,0,4.62,14.74V34.33A10.13,10.13,0,0,0,14.74,44.45H34.32A10.13,10.13,0,0,0,44.45,34.33V14.74A10.13,10.13,0,0,0,34.32,4.62Z"/></svg>